<svg width="220" height="60" viewBox="0 0 220 60" xmlns="http://www.w3.org/2000/svg">
  <rect width="220" height="60" rx="14" fill="#d8f0ff"/>
  <g transform="translate(16 10)">
    <path d="M14 0a14 14 0 0 0-4 27.3V32a2 2 0 0 0 2 2h2.4v3.3A2.7 2.7 0 0 0 17 40h2a2.7 2.7 0 0 0 2.6-2.7V34H24a2 2 0 0 0 2-2v-4.7A14 14 0 0 0 14 0zm0 4a10 10 0 0 1 3.2 19.4 2 2 0 0 0-1.3 1.9V30h-3.8v-4.7a2 2 0 0 0-1.3-1.9A10 10 0 0 1 14 4z" fill="#0d5c89"/>
    <circle cx="14" cy="-4" r="3" fill="#0d5c89"/>
    <circle cx="28" cy="5" r="3" fill="#0d5c89"/>
    <circle cx="0" cy="5" r="3" fill="#0d5c89"/>
    <circle cx="5" cy="22" r="3" fill="#0d5c89"/>
    <circle cx="23" cy="22" r="3" fill="#0d5c89"/>
  </g>
  <text x="70" y="30" font-family="'Poppins', 'Inter', sans-serif" font-size="26" font-weight="600" fill="#0d5c89">LearnHub</text>
  <text x="70" y="45" font-family="'Poppins', 'Inter', sans-serif" font-size="13" fill="#1774a8">by students, for students</text>
</svg>
